# xmcd CD database file
#
# Track frame offsets:
#	150
#	19435
#	45722
#	61432
#	79650
#	112580
#	136100
#	156227
#	197232
#	219952
#	247407
#
# Disc length: 3458 seconds
#
# Revision: 0
# Processed by: cddbd v1.5.1PL0 Copyright (c) Steve Scherf et al.
# Submitted via: CDex 1.50beta10
#
DISCID=970d800b
DTITLE=Clarence "Gatemouth" Brown - Timeless
DYEAR=2004
DGENRE=Blues
TTITLE0=Soft Wind
TTITLE1=For Now So Long
TTITLE2=Jumpin' The Blues
TTITLE3=Tennessee Blues
TTITLE4=Unchained Melody
TTITLE5=Satin Doll
TTITLE6=The Drifter - Spoken Intro
TTITLE7=The Drifter
TTITLE8=Mercy, Mercy, Mercy
TTITLE9=Dark End Of The Hallway
TTITLE10=Six Levels Below Plant Life
EXTD=YEAR: 2004
EXTT0=
EXTT1=
EXTT2=
EXTT3=
EXTT4=
EXTT5=
EXTT6=
EXTT7=
EXTT8=
EXTT9=
EXTT10=
PLAYORDER=
